<?xml version="1.0" encoding="iso-8859-1"?>
<!-- Generator: Adobe Illustrator 19.0.0, SVG Export Plug-In . SVG Version: 6.00 Build 0)  -->
<svg version="1.1" id="Capa_1" xmlns="http://www.w3.org/2000/svg" xmlns:xlink="http://www.w3.org/1999/xlink" x="0px" y="0px"
	 viewBox="0 0 512 512" style="enable-background:new 0 0 512 512;" xml:space="preserve">
<linearGradient id="SVGID_1_" gradientUnits="userSpaceOnUse" x1="0" y1="258" x2="512" y2="258" gradientTransform="matrix(1 0 0 -1 0 514)">
	<stop  offset="0" style="stop-color:#00F2FE"/>
	<stop  offset="0.021" style="stop-color:#03EFFE"/>
	<stop  offset="0.293" style="stop-color:#24D2FE"/>
	<stop  offset="0.554" style="stop-color:#3CBDFE"/>
	<stop  offset="0.796" style="stop-color:#4AB0FE"/>
	<stop  offset="1" style="stop-color:#4FACFE"/>
</linearGradient>
<path style="fill:url(#SVGID_1_);" d="M476.581,163.419C453.41,140.248,421.396,128,384,128c-76.369,0-113.4,62.86-146.073,118.32
	C207.05,298.734,180.383,344,128,344c-54.28,0-88-33.72-88-88s33.72-88,88-88c23.21,0,44.197,9.302,64.16,28.438
	c7.974,7.643,20.634,7.377,28.278-0.598c7.644-7.974,7.376-20.634-0.598-28.278C192.454,141.311,161.555,128,128,128
	c-37.395,0-69.409,12.248-92.581,35.419C12.248,186.591,0,218.605,0,256s12.248,69.409,35.419,92.581
	C58.591,371.752,90.605,384,128,384c61.502,0,97.276-41.663,125.991-86.924c4.659,7.904,10.313,16.535,17.017,25.18
	C302.331,362.649,341.403,384,384,384c14.703,0,28.756-1.935,41.767-5.75c10.6-3.107,16.673-14.22,13.565-24.819
	c-3.108-10.6-14.22-16.672-24.819-13.565C405.158,342.609,394.892,344,384,344c-60.616,0-95.467-64.338-105.885-87.07
	C306.987,208.243,333.79,168,384,168c54.28,0,88,33.72,88,88c0,12.21-1.707,23.552-5.071,33.711
	c-3.473,10.485,2.211,21.801,12.696,25.274c10.488,3.475,21.801-2.212,25.274-12.696C509.611,288.065,512,272.492,512,256
	C512,218.604,499.752,186.591,476.581,163.419z"/>
<g>
</g>
<g>
</g>
<g>
</g>
<g>
</g>
<g>
</g>
<g>
</g>
<g>
</g>
<g>
</g>
<g>
</g>
<g>
</g>
<g>
</g>
<g>
</g>
<g>
</g>
<g>
</g>
<g>
</g>
</svg>
