<?xml version="1.0" encoding="utf-8"?>
<!-- Generator: Adobe Illustrator 16.0.0, SVG Export Plug-In . SVG Version: 6.00 Build 0)  -->
<!DOCTYPE svg PUBLIC "-//W3C//DTD SVG 1.1//EN" "http://www.w3.org/Graphics/SVG/1.1/DTD/svg11.dtd">
<svg version="1.1" id="Layer_1" xmlns="http://www.w3.org/2000/svg" xmlns:xlink="http://www.w3.org/1999/xlink" x="0px" y="0px"
	 width="512px" height="512px" viewBox="0 0 512 512" enable-background="new 0 0 512 512" xml:space="preserve">
<g>
	<g>
		<path fill="#01947A" d="M468.907,214.604c-11.423,0-20.683,9.26-20.683,20.683v20.831c-0.03,54.337-21.221,105.411-59.666,143.812
			c-38.416,38.372-89.468,59.5-143.762,59.5c-0.04,0-0.079,0-0.119,0C132.506,459.365,41.3,368.056,41.364,255.883
			c0.031-54.337,21.221-105.411,59.667-143.813c38.417-38.372,89.468-59.5,143.761-59.5c0.04,0,0.08,0,0.12,0
			c28.672,0.017,56.49,5.942,82.68,17.611c10.438,4.65,22.659-0.041,27.311-10.474c4.646-10.434-0.041-22.659-10.476-27.31
			c-31.516-14.043-64.987-21.173-99.491-21.191c-0.053,0-0.093,0-0.145,0c-65.329,0-126.767,25.428-172.993,71.6
			C25.536,129.014,0.038,190.473,0,255.861c-0.037,65.386,25.39,126.875,71.6,173.136c46.21,46.263,107.668,71.761,173.055,71.799
			c0.051,0,0.092,0,0.144,0c65.329,0,126.768-25.428,172.993-71.601c46.263-46.209,71.761-107.668,71.799-173.065v-20.842
			C489.59,223.864,480.33,214.604,468.907,214.604z"/>
	</g>
</g>
<g>
	<g>
		<path fill="#01947A" d="M505.942,39.803c-8.077-8.076-21.173-8.076-29.249,0L244.794,271.701l-52.608-52.609
			c-8.076-8.077-21.172-8.077-29.248,0c-8.077,8.077-8.077,21.172,0,29.249l67.233,67.233c4.038,4.039,9.332,6.059,14.625,6.059
			s10.586-2.02,14.625-6.059L505.942,69.052C514.019,60.975,514.019,47.88,505.942,39.803z"/>
	</g>
</g>
</svg>
