<svg viewBox="0 -31 511.99977 511" xmlns="http://www.w3.org/2000/svg"><path d="m464.0625 430.386719c-137.554688 25.273437-278.566406 25.273437-416.125 0-34.164062-6.28125-55.359375-40.777344-45.519531-74.089844 9.449219-32 37.464843-55 70.691406-58.039063 121.671875-11.125 244.105469-11.125 365.777344 0 33.230469 3.039063 61.246093 26.039063 70.695312 58.039063 9.839844 33.3125-11.355469 67.8125-45.519531 74.089844zm0 0" fill="#a78c7e"/><path d="m274.539062 449.175781c-113.714843-24.359375-79.667968-125.761719-42.667968-159.109375-52.980469.636719-105.941406 3.363282-158.757813 8.191406-33.230469 3.039063-61.242187 26.039063-70.695312 58.039063-9.839844 33.3125 11.355469 67.8125 45.523437 74.089844 74.878906 13.757812 150.785156 20.007812 226.597656 18.789062zm0 0" fill="#947c70"/><path d="m439.246094 311.847656c-121.148438 22.261719-245.34375 22.261719-366.492188 0-30.089844-5.527344-48.757812-35.910156-40.09375-65.25 8.324219-28.183594 32.996094-48.441406 62.265625-51.117187 107.15625-9.796875 214.988281-9.796875 322.148438 0 29.269531 2.675781 53.941406 22.933593 62.265625 51.117187 8.667968 29.339844-10 59.722656-40.09375 65.25zm0 0" fill="#ddaf89"/><path d="m219.847656 188.519531c-41.6875.855469-83.355468 3.160157-124.921875 6.960938-29.265625 2.675781-53.941406 22.933593-62.265625 51.117187-8.664062 29.339844 10.003906 59.722656 40.09375 65.25 63.070313 11.589844 126.96875 17.132813 190.828125 16.65625-107.375-18.792968-99.5-103.273437-43.734375-139.984375zm0 0" fill="#c9a07d"/><path d="m202.769531 103.101562c50.71875-3.660156 71.621094-32.515624 76.09375-64.46875 1.917969-13.722656 16.566407-21.632812 29.257813-16.082031 61.328125 26.816407 131.613281 67.832031 131.613281 135.875l-.082031-.019531c1.164062 20.351562-12.917969 39.25-33.917969 43.109375-97.558594 17.925781-197.570313 17.925781-295.128906 0-24.234375-4.453125-39.265625-28.917969-32.285157-52.546875 6.703126-22.695312 22.007813-31.457031 40.457032-36.824219 21.640625-6.296875 48.671875-6.496093 83.992187-9.042969zm0 0" fill="#a78c7e"/><path d="m206.585938 288.527344c0-12.710938-12.9375-23.011719-28.894532-23.011719-15.960937 0-28.894531 10.300781-28.894531 23.011719 0 12.707031 12.933594 23.011718 28.894531 23.011718 15.957032 0 28.894532-10.304687 28.894532-23.011718zm0 0" fill="#fff"/><path d="m363.207031 288.527344c0-12.710938-12.9375-23.011719-28.894531-23.011719s-28.894531 10.300781-28.894531 23.011719c0 12.707031 12.9375 23.011718 28.894531 23.011718s28.894531-10.304687 28.894531-23.011718zm0 0" fill="#fff"/><g fill="#495059"><path d="m182.519531 268.855469c-4.140625 0-7.5-3.355469-7.5-7.5v-12.402344c0-4.140625 3.359375-7.5 7.5-7.5s7.5 3.359375 7.5 7.5v12.402344c0 4.144531-3.359375 7.5-7.5 7.5zm0 0"/><path d="m256 291.78125c-11.5625 0-20.933594-9.375-20.933594-20.933594v-15.222656c0-3.15625 2.558594-5.714844 5.714844-5.714844h30.441406c3.15625 0 5.714844 2.558594 5.714844 5.714844v15.222656c0 11.558594-9.375 20.933594-20.9375 20.933594zm0 0"/><path d="m329.480469 268.855469c-4.140625 0-7.5-3.355469-7.5-7.5v-12.402344c0-4.140625 3.359375-7.5 7.5-7.5 4.144531 0 7.5 3.359375 7.5 7.5v12.402344c0 4.144531-3.355469 7.5-7.5 7.5zm0 0"/></g><path d="m187.003906 104.140625c-27.753906 1.710937-49.929687 2.679687-68.226562 8-18.449219 5.371094-33.753906 14.132813-40.457032 36.828125-6.976562 23.625 8.054688 48.09375 32.285157 52.546875 50.632812 9.300781 101.921875 13.765625 153.191406 13.410156-102.941406-15.910156-105.246094-82.148437-76.792969-110.785156zm0 0" fill="#947c70"/><path d="m143.679688 28.09375c-4.527344 9.703125-19.386719 21.027344-29.09375 16.5-9.707032-4.527344-10.585938-23.1875-6.058594-32.890625 4.527344-9.707031 16.0625-13.90625 25.769531-9.382813 9.707031 4.527344 13.90625 16.066407 9.382813 25.773438zm0 0" fill="#e3e2e1"/><path d="m91.304688 17.96875c9.703124 4.527344 21.027343 19.386719 16.5 29.09375-4.527344 9.707031-23.1875 10.585938-32.894532 6.058594-9.707031-4.527344-13.902344-16.0625-9.378906-25.769532 4.527344-9.707031 16.066406-13.90625 25.773438-9.382812zm0 0" fill="#e3e2e1"/><path d="m133.34375 49.21875c0 11.550781-9.363281 20.914062-20.914062 20.914062-11.550782 0-20.914063-9.363281-20.914063-20.914062s9.363281-20.914062 20.914063-20.914062c11.550781 0 20.914062 9.363281 20.914062 20.914062zm0 0" fill="#495059"/><path d="m443.296875 125.574219c-10.707031 0-27.25-8.683594-27.25-19.394531 0-10.707032 16.542969-19.390626 27.25-19.390626 10.710937 0 19.394531 8.683594 19.394531 19.390626 0 10.710937-8.683594 19.394531-19.394531 19.394531zm0 0" fill="#e3e2e1"/><path d="m430.335938 73.828125c0 10.710937-8.679688 27.25-19.390626 27.25-10.710937 0-19.390624-16.539063-19.390624-27.25s8.679687-19.390625 19.390624-19.390625c10.710938 0 19.390626 8.679688 19.390626 19.390625zm0 0" fill="#e3e2e1"/><path d="m431.859375 106.179688c0 11.550781-9.363281 20.914062-20.914063 20.914062-11.550781 0-20.914062-9.363281-20.914062-20.914062 0-11.546876 9.363281-20.910157 20.914062-20.910157 11.550782 0 20.914063 9.363281 20.914063 20.910157zm0 0" fill="#495059"/></svg>