<?xml version="1.0" encoding="utf-8"?>
<!-- Generator: Adobe Illustrator 16.0.0, SVG Export Plug-In . SVG Version: 6.00 Build 0)  -->
<!DOCTYPE svg PUBLIC "-//W3C//DTD SVG 1.1//EN" "http://www.w3.org/Graphics/SVG/1.1/DTD/svg11.dtd">
<svg version="1.1" id="Capa_1" xmlns="http://www.w3.org/2000/svg" xmlns:xlink="http://www.w3.org/1999/xlink" x="0px" y="0px"
	 width="512px" height="512px" viewBox="0 0 512 512" enable-background="new 0 0 512 512" xml:space="preserve">
<g>
	<g>
		<path fill="#F12222" d="M255.993,350.883c-14.313,0-26.313,11.998-26.313,26.313c0,14.313,11.999,26.312,26.313,26.312
			c13.788,0,26.313-11.998,25.681-25.681C282.305,362.776,270.412,350.883,255.993,350.883z"/>
		<path fill="#F12222" d="M499.541,444.134c16.524-28.522,16.63-62.519,0.211-90.936L334.93,67.762
			c-16.313-28.733-45.783-45.784-78.832-45.784c-33.048,0-62.519,17.156-78.832,45.679L12.235,353.408
			c-16.419,28.733-16.313,62.939,0.316,91.462c16.418,28.207,45.783,45.152,78.621,45.152h329.221
			C453.337,490.023,482.912,472.867,499.541,444.134z M463.756,423.505c-9.156,15.787-25.365,25.154-43.468,25.154H91.067
			c-17.893,0-33.995-9.156-42.941-24.628c-9.052-15.683-9.157-34.417-0.105-50.204L213.052,88.18
			c8.946-15.682,24.944-24.944,43.047-24.944c17.998,0,34.101,9.367,43.047,25.05l164.927,285.646
			C472.913,389.299,472.807,407.823,463.756,423.505z"/>
		<path fill="#F12222" d="M249.468,166.17c-12.524,3.578-20.313,14.945-20.313,28.733c0.632,8.314,1.158,16.734,1.79,25.049
			c1.789,31.681,3.578,62.729,5.367,94.409c0.632,10.735,8.946,18.523,19.682,18.523s19.155-8.314,19.682-19.155
			c0-6.525,0-12.524,0.632-19.155c1.157-20.313,2.421-40.626,3.578-60.939c0.632-13.156,1.789-26.313,2.421-39.469
			c0-4.736-0.632-8.946-2.421-13.156C274.517,169.222,261.992,163.223,249.468,166.17z"/>
	</g>
</g>
</svg>
