<?xml version="1.0" encoding="utf-8"?>
<!-- Generator: Adobe Illustrator 16.0.0, SVG Export Plug-In . SVG Version: 6.00 Build 0)  -->
<!DOCTYPE svg PUBLIC "-//W3C//DTD SVG 1.1//EN" "http://www.w3.org/Graphics/SVG/1.1/DTD/svg11.dtd">
<svg version="1.1" id="Слой_1" xmlns="http://www.w3.org/2000/svg" xmlns:xlink="http://www.w3.org/1999/xlink" x="0px" y="0px"
	 width="512px" height="512px" viewBox="0 0 512 512" enable-background="new 0 0 512 512" xml:space="preserve">
<g>
	<path fill="#F1B922" d="M360.76,289.26c17.427-22.979,26.637-50.406,26.637-79.317c0-35.449-13.902-68.679-39.147-93.57
		c-25.24-24.886-58.694-38.325-94.147-37.813c-34.356,0.486-66.726,14.272-91.144,38.818s-38.036,56.987-38.349,91.348
		c-0.268,29.457,8.997,57.377,26.791,80.744c28.888,37.934,44.798,84.399,44.798,130.839v50.813
		c0,22.539,18.337,40.876,40.876,40.876h38.021c22.539,0,40.876-18.338,40.876-40.876v-50.811
		C315.973,373.36,331.348,328.041,360.76,289.26z M164.803,279.265c-15.508-20.364-23.581-44.703-23.349-70.385
		c0.56-61.698,51.199-112.603,112.885-113.475c30.944-0.416,60.078,11.27,82.08,32.965c22.01,21.699,34.13,50.67,34.13,81.573
		c0,25.204-8.026,49.111-23.213,69.138c-30.989,40.864-47.676,88.537-48.358,138.063H213.02
		C212.316,368.099,195.257,319.253,164.803,279.265z M213.045,465.413v-6.819l86.082,9.862v2.666c0,1.404-0.146,2.771-0.378,4.109
		L213.045,465.413z M213.045,441.638v-7.647h86.082v17.509L213.045,441.638z M237.074,495.154c-9.049,0-16.938-5.032-21.037-12.441
		l72.516,8.308c-3.842,2.607-8.474,4.132-13.456,4.132h-38.022V495.154z"/>
	<path fill="#F1B922" d="M172.706,222.613c-0.657-4.407-0.971-8.937-0.929-13.458c0.043-4.651-3.694-8.457-8.346-8.499
		c-4.62-0.041-8.457,3.693-8.5,8.346c-0.049,5.402,0.325,10.817,1.112,16.098c0.623,4.18,4.217,7.182,8.321,7.182
		c0.413,0,0.832-0.03,1.253-0.093C170.219,231.5,173.392,227.214,172.706,222.613L172.706,222.613z"/>
	<path fill="#F1B922" d="M222.276,350.559c0.871,0,1.759-0.138,2.633-0.424c4.419-1.453,6.823-6.214,5.37-10.632
		c-9.335-28.389-23.248-54.838-41.353-78.61c-2.991-3.93-5.644-8.115-7.88-12.443c-2.136-4.133-7.218-5.75-11.351-3.613
		c-4.132,2.136-5.75,7.218-3.614,11.351c2.685,5.191,5.86,10.208,9.443,14.913c16.965,22.277,30.003,47.062,38.751,73.665
		C215.442,348.31,218.736,350.559,222.276,350.559L222.276,350.559z"/>
	<path fill="#F1B922" d="M344.507,238.785c-4.272-1.841-9.229,0.132-11.068,4.404c-2.668,6.197-6.122,12.107-10.264,17.568
		c-2.812,3.706-2.085,8.99,1.621,11.802c1.522,1.154,3.311,1.711,5.084,1.711c2.546,0,5.062-1.148,6.718-3.334
		c4.963-6.544,9.105-13.638,12.313-21.083C350.751,245.581,348.78,240.625,344.507,238.785L344.507,238.785z"/>
	<path fill="#F1B922" d="M256.001,125.718c46.442,0,84.226,37.784,84.226,84.227c0,2.641-0.121,5.301-0.36,7.907
		c-0.425,4.633,2.985,8.732,7.618,9.158c0.262,0.023,0.521,0.036,0.779,0.036c4.305,0,7.978-3.283,8.378-7.654
		c0.285-3.116,0.432-6.295,0.432-9.447c0-55.731-45.341-101.073-101.072-101.073c-4.652,0-8.424,3.771-8.424,8.423
		C247.577,121.947,251.348,125.718,256.001,125.718L256.001,125.718z"/>
	<path fill="#F1B922" d="M256.001,64.017c4.651,0,8.423-3.771,8.423-8.424V8.423c0-4.651-3.771-8.423-8.423-8.423
		c-4.652,0-8.424,3.771-8.424,8.423v47.17C247.577,60.245,251.348,64.017,256.001,64.017z"/>
	<path fill="#F1B922" d="M170.784,80.661c1.562,2.703,4.392,4.214,7.303,4.214c1.429,0,2.877-0.364,4.204-1.13
		c4.028-2.326,5.409-7.478,3.084-11.507l-23.574-40.836c-2.327-4.029-7.478-5.409-11.506-3.084
		c-4.029,2.326-5.41,7.478-3.084,11.507L170.784,80.661z"/>
	<path fill="#F1B922" d="M436.01,305.613l-40.837-23.574c-4.029-2.327-9.181-0.945-11.506,3.084
		c-2.326,4.028-0.945,9.181,3.084,11.507l40.836,23.573c1.327,0.766,2.774,1.13,4.204,1.13c2.911,0,5.742-1.512,7.303-4.214
		C441.42,313.09,440.039,307.938,436.01,305.613L436.01,305.613z"/>
	<path fill="#F1B922" d="M75.99,117.213l40.836,23.574c1.326,0.766,2.774,1.13,4.204,1.13c2.911,0,5.742-1.512,7.302-4.214
		c2.326-4.028,0.946-9.181-3.084-11.506l-40.836-23.574c-4.028-2.327-9.18-0.945-11.506,3.084
		C70.58,109.736,71.961,114.886,75.99,117.213z"/>
	<path fill="#F1B922" d="M458.989,202.99h-47.171c-4.651,0-8.423,3.771-8.423,8.423s3.771,8.423,8.423,8.423h47.171
		c4.651,0,8.423-3.771,8.423-8.423S463.641,202.99,458.989,202.99z"/>
	<path fill="#F1B922" d="M108.604,211.412c0-4.652-3.771-8.423-8.424-8.423H53.01c-4.652,0-8.424,3.771-8.424,8.423
		s3.771,8.423,8.424,8.423h47.17C104.834,219.835,108.604,216.065,108.604,211.412z"/>
	<path fill="#F1B922" d="M390.97,141.917c1.429,0,2.877-0.364,4.203-1.13l40.837-23.574c4.028-2.325,5.409-7.478,3.084-11.506
		c-2.326-4.028-7.479-5.41-11.507-3.084l-40.836,23.574c-4.028,2.325-5.41,7.478-3.084,11.506
		C385.228,140.406,388.06,141.917,390.97,141.917L390.97,141.917z"/>
	<path fill="#F1B922" d="M116.826,282.038L75.99,305.613c-4.028,2.325-5.41,7.478-3.084,11.506c1.56,2.702,4.392,4.214,7.303,4.214
		c1.429,0,2.877-0.364,4.203-1.13l40.836-23.573c4.029-2.326,5.41-7.479,3.084-11.507
		C126.008,281.093,120.852,279.712,116.826,282.038z"/>
	<path fill="#F1B922" d="M329.71,83.745c1.326,0.766,2.774,1.13,4.204,1.13c2.911,0,5.742-1.512,7.302-4.214l23.574-40.836
		c2.326-4.029,0.944-9.181-3.084-11.507c-4.027-2.325-9.181-0.945-11.506,3.084l-23.574,40.836
		C324.3,76.268,325.681,81.419,329.71,83.745L329.71,83.745z"/>
</g>
</svg>
